<svg width="32" height="33" viewBox="0 0 32 33" fill="none" xmlns="http://www.w3.org/2000/svg">
<path fill-rule="evenodd" clip-rule="evenodd" d="M26.0156 0C27.7046 0 29.2629 0.728031 30.3212 1.93477L15.8413 11.2895L1.36459 1.93707C2.40477 0.753347 3.94575 0 5.66627 0H11.8483C13.3877 0 14.8067 0.602217 15.8405 1.60412C16.8736 0.602217 18.2934 0 19.8328 0H26.0156ZM15.8413 13.0555L31.1346 3.17602C31.1487 3.20523 31.1643 3.23327 31.18 3.26129C31.2 3.29729 31.2201 3.33325 31.2369 3.37165C31.5322 4.05442 31.6818 4.77708 31.6818 5.52122V27.3545C31.6818 30.3986 29.1408 32.875 26.0156 32.875H24.2131C23.1659 32.875 22.1596 32.5896 21.2926 32.0794V22.2537C21.2926 21.7995 20.9146 21.4313 20.4477 21.4313C19.9816 21.4313 19.6036 21.7995 19.6036 22.2537V32.1109C18.75 32.6003 17.7665 32.875 16.7429 32.875H14.9397C13.942 32.875 12.994 32.6233 12.1656 32.1699V22.2537C12.1656 21.7995 11.7885 21.4313 11.3215 21.4313C10.8554 21.4313 10.4774 21.7995 10.4774 22.2537V32.1538C9.59234 32.6954 8.55531 33 7.46946 33H5.66627C2.54179 33 0 30.5244 0 27.4795V5.52122C0 4.68118 0.199218 3.88718 0.544895 3.17372L15.8413 13.0555Z" fill="black"/>
</svg>
